<svg xmlns="http://www.w3.org/2000/svg" viewBox="0 0 533.5 544.3" width="24" height="24">
  <path fill="#4285f4" d="M533.5 278.4c0-18.1-1.5-36.3-4.7-54.2H272v102.7h147.4c-6.4 34.5-25.9 63.8-55.2 83.3l89.2 69.4c52-48.1 80.1-119 80.1-201.2z"/>
  <path fill="#34a853" d="M272 544.3c72.6 0 133.4-24.1 177.9-65.4l-89.2-69.4c-24.9 16.8-56.7 26.7-88.7 26.7-68.4 0-126.4-46.1-147.1-108.4l-92.9 71.6c41.6 82.5 126.5 144.9 240 144.9z"/>
  <path fill="#fbbc05" d="M124.9 327.8c-10.1-30.4-10.1-63.4 0-93.8l-92.9-71.6C6.1 218.4 0 247.9 0 278.4s6.1 60 32 115.9l92.9-71.6z"/>
  <path fill="#ea4335" d="M272 109.7c37.3 0 71.3 12.9 97.9 38.2l73.3-73.3C408.6 27.2 348.5 0 272 0 158.5 0 73.6 62.4 32 144.9l92.9 71.6c20.7-62.3 78.7-108.4 147.1-108.4z"/>
</svg>
